# xmcd
#
# Track frame offsets: 
#        150
#        34580
#        77493
#        117192
#        155269
#        191439
#        223859
#
# Disc length: 3305 seconds
#
# Revision: 2
# Processed by: cddbd v1.5.2PL0 Copyright (c) Steve Scherf et al.
# Submitted via: ExactAudioCopyFreeDBPlugin 1.0
#
DISCID=500ce707
DTITLE=Craig Pruess - Language Of Love [CD]
DYEAR=2004
DGENRE=New Age
TTITLE0=Adoration
TTITLE1=Longing
TTITLE2=Awakening
TTITLE3=Rasa Lila
TTITLE4=Mystery
TTITLE5=Not Two
TTITLE6=Valley Of Peace
EXTD=YEAR: 2004
EXTT0=
EXTT1=
EXTT2=
EXTT3=
EXTT4=
EXTT5=
EXTT6=
PLAYORDER=
